<?xml version="1.0" encoding="utf-8"?>
<!-- Generator: Adobe Illustrator 27.8.1, SVG Export Plug-In . SVG Version: 6.00 Build 0)  -->
<svg version="1.1" id="Layer_1" xmlns="http://www.w3.org/2000/svg" xmlns:xlink="http://www.w3.org/1999/xlink" x="0px" y="0px"
	 viewBox="0 0 612 792" style="enable-background:new 0 0 612 792;" xml:space="preserve">
<style type="text/css">
	.st0{fill:#ED1C24;stroke:#000000;stroke-miterlimit:10;}
	.st1{fill:#00AEEF;stroke:#000000;stroke-miterlimit:10;}
	.st2{fill:#7DC78E;}
	.st3{fill:#7CC797;}
	.st4{fill:none;stroke:#000000;stroke-miterlimit:10;}
</style>
<circle class="st0" cx="306" cy="347.98" r="261.8"/>
<ellipse class="st1" cx="306" cy="396.16" rx="125.47" ry="396.16"/>
<g>
	<path class="st2" d="M256.46,174.27c15.39-6.15,33.57-3.15,47.48,5.86s23.75,23.44,29.31,39.05c2.91,8.16,4.75,16.93,3.48,25.5
		c-1.42,9.66-6.67,18.35-12.83,25.92c-18.31,22.49-45.93,37.15-74.82,39.7c12.13-3.33,24.83-6.68,37.12-4.05
		c14.04,3,25.54,13.59,32.83,25.96c7.3,12.37,10.96,26.49,14.32,40.46c1.71,7.12,3.26,15.1-0.5,21.38
		c-3.01,5.03-8.7,7.69-14.05,10.07c-34.44,15.28-71.01,30.9-108.41,26.41c-5-0.6-10.54-1.94-13.18-6.23
		c-2.33-3.79-1.6-8.64-0.81-13.02c13.68-75.87,22.11-152.68,25.24-229.7c0.12-2.88,0.54-6.29,3.08-7.64
		c1.23-0.65,2.68-0.65,4.07-0.62c8.16,0.12,16.31,0.25,24.47,0.37"/>
	<g>
		<path d="M257.12,176.68c14.19-5.59,30.41-3.33,43.41,4.29c12.85,7.54,22.22,19.9,28.14,33.4c3.28,7.47,5.8,15.65,5.95,23.85
			c0.15,8.2-2.59,15.83-6.87,22.74c-7.84,12.67-19.45,23.25-32.05,31.06c-12.61,7.82-26.76,13.05-41.45,15.18
			c-1.72,0.25-3.45,0.44-5.19,0.6c0.22,1.64,0.44,3.27,0.66,4.91c9.22-2.53,18.63-5.11,28.27-4.9c8.08,0.18,15.65,2.78,22.3,7.35
			c13.77,9.47,21.27,25.12,26.01,40.65c1.31,4.3,2.45,8.64,3.54,13c1.02,4.12,2.2,8.28,2.64,12.51c0.41,3.9,0.27,8-1.79,11.46
			c-1.87,3.12-5,5.16-8.15,6.81c-3.82,2-7.84,3.63-11.79,5.36c-4.29,1.88-8.58,3.74-12.9,5.54c-8.68,3.61-17.45,6.99-26.4,9.87
			c-17.56,5.65-35.92,9.34-54.44,8.25c-6.23-0.37-16.97-0.44-18.65-8.21c-0.87-4.02,0.46-8.51,1.17-12.46
			c0.86-4.82,1.69-9.64,2.51-14.46c3.31-19.6,6.26-39.26,8.88-58.96c2.6-19.56,4.85-39.18,6.76-58.82
			c1.92-19.73,3.48-39.49,4.7-59.27c0.6-9.85,1.12-19.7,1.55-29.56c0.1-2.3,0.11-4.61,0.33-6.9c0.11-1.19,0.36-2.95,1.42-3.71
			c1.35-0.96,3.89-0.45,5.42-0.43c2.55,0.04,5.1,0.08,7.65,0.12c4.84,0.07,9.69,0.15,14.53,0.22c3.22,0.05,3.22-4.95,0-5
			c-5.18-0.08-10.37-0.16-15.55-0.23c-2.63-0.04-5.27-0.08-7.9-0.12c-2.26-0.03-4.65-0.12-6.65,1.12
			c-3.78,2.35-3.92,7.18-4.09,11.14c-0.21,5.14-0.45,10.28-0.71,15.42c-1.04,20.55-2.46,41.09-4.26,61.59
			c-1.8,20.59-3.99,41.14-6.55,61.64c-2.55,20.37-5.47,40.68-8.77,60.94c-1.63,10.02-3.6,19.99-5.15,30.01
			c-0.67,4.35-0.97,9.13,1.52,13.02c2.2,3.43,5.91,5.36,9.76,6.36c4.29,1.11,8.86,1.4,13.27,1.61c4.78,0.23,9.57,0.15,14.35-0.19
			c9.72-0.7,19.36-2.47,28.78-4.94c18.99-4.98,37.12-12.71,55.03-20.63c7.53-3.33,16.28-6.6,19.73-14.76
			c3.57-8.44,0.47-18.14-1.64-26.56c-4.35-17.4-10.15-35.22-22.91-48.38c-5.63-5.81-12.48-10.51-20.16-13.13
			c-9.24-3.15-19.14-2.59-28.58-0.74c-4.85,0.95-9.62,2.24-14.38,3.55c-2.63,0.72-2.22,5.17,0.66,4.91
			c15.72-1.42,31.01-6.18,44.78-13.88c13.81-7.72,26.15-18.38,35.4-31.23c4.95-6.87,8.86-14.69,9.99-23.16
			c1.24-9.22-0.81-18.54-4.01-27.17c-5.52-14.85-14.7-28.5-27.69-37.79c-13.07-9.35-30.27-13.47-46.02-9.56
			c-1.95,0.48-3.86,1.11-5.74,1.84c-1.26,0.49-2.13,1.67-1.75,3.08C254.38,176.13,255.86,177.18,257.12,176.68L257.12,176.68z"/>
	</g>
</g>
<g>
	<g>
		<path d="M235.92,366.23c3.56-1.39,7.24-2.5,10.95-3.39c3.98-0.95,7.37-1.63,11.41-1.52c0.41,0.01,0.83,0.03,1.24,0.07
			c0.18,0.02,0.36,0.03,0.53,0.06c0.42,0.05-0.59-0.12,0.05,0.01c0.35,0.07,0.7,0.13,1.05,0.23c0.23,0.06,1.28,0.52,0.66,0.2
			c0.24,0.12,0.47,0.26,0.71,0.39c0.46,0.26-0.38-0.39-0.01-0.02c0.04,0.04,0.16,0.18,0.22,0.21c0.16,0.08,0.37,0.57-0.01-0.05
			c0.01,0.02,0.24,0.37,0.23,0.38c0.02,0.04,0.04,0.09,0.07,0.13c-0.14-0.35-0.17-0.43-0.11-0.25c0.04,0.17,0.08,0.37,0.15,0.53
			c0.18,0.46,0.05-0.52-0.01-0.01c-0.01,0.11,0.01,0.24,0,0.35c0,0.19-0.02,0.37-0.04,0.56c0.07-0.66-0.02,0.02-0.05,0.14
			c-0.22,0.87-0.38,1.78-0.42,2.68c-0.07,1.62,0.33,3.23,1.08,4.66c1.25,2.38,3.48,4.01,5.5,5.68c1.04,0.86,2.07,1.75,2.96,2.78
			c0.12,0.14,0.24,0.28,0.36,0.43c-0.4-0.49,0,0,0.06,0.09c0.18,0.26,0.35,0.52,0.51,0.79c0.16,0.28,0.31,0.56,0.45,0.85
			c0.29,0.59-0.17-0.5,0.05,0.13c0.09,0.26,0.18,0.51,0.25,0.77c0.1,0.34,0.17,0.68,0.24,1.03c0.14,0.71-0.03-0.52,0.03,0.22
			c0.01,0.15,0.03,0.31,0.04,0.46c0.05,0.91-0.03,2.14-0.13,2.7c-0.37,2.14-0.92,4.91-2.82,6.22c-1.06,0.73-2.47,0.79-3.71,0.86
			c-1.86,0.11-3.73,0.19-5.59,0.29c-3.71,0.19-7.42,0.38-11.13,0.57c-4.12,0.21-8.24,0.42-12.36,0.63c-0.77,0.04-1.61,0.17-2.38,0.1
			c-0.31-0.03,0.11,0.17,0.09,0.12c-0.03-0.09,0.03-0.65,0.03-0.75c0.18-1.96,0.58-3.94,0.89-5.89c1.27-8.11,2.69-16.2,4.25-24.26
			c0.26-1.32-0.37-2.7-1.75-3.08c-1.22-0.34-2.82,0.41-3.08,1.75c-1.53,7.9-2.93,15.82-4.18,23.77c-0.31,1.95-0.61,3.89-0.89,5.84
			c-0.25,1.73-0.54,3.56,0.37,5.17c0.99,1.74,2.87,2.33,4.76,2.31c1.94-0.02,3.89-0.2,5.83-0.29c8.08-0.41,16.16-0.82,24.23-1.24
			c3.53-0.18,6.96-0.63,9.33-3.56c1.91-2.36,2.72-5.5,3.1-8.46c0.52-4.07-0.56-7.85-3.21-10.98c-1.87-2.22-4.38-3.75-6.42-5.79
			c-0.23-0.24-0.45-0.49-0.68-0.73c-0.1-0.11-0.43-0.57-0.02,0c-0.09-0.13-0.19-0.26-0.28-0.39c-0.17-0.27-0.32-0.55-0.48-0.82
			c-0.05-0.09-0.09-0.19-0.13-0.29c0.31,0.69,0.01,0.01-0.02-0.16c-0.05-0.21-0.2-1.24-0.14-0.48c-0.03-0.36-0.05-0.71-0.03-1.07
			c0.01-0.19,0.03-0.38,0.05-0.57c-0.08,0.66,0.02-0.03,0.04-0.14c0.16-0.63,0.28-1.26,0.35-1.91c0.43-3.77-2.08-6.54-5.59-7.46
			c-4.52-1.19-9.58-0.33-14.07,0.57c-4.67,0.94-9.29,2.27-13.73,4c-1.26,0.49-2.13,1.68-1.75,3.08
			C233.17,365.68,234.65,366.72,235.92,366.23L235.92,366.23z"/>
	</g>
</g>
<g>
	<g>
		<path d="M247.36,215.14c7.63-1.02,15.63-2.18,23.21-0.24c6.33,1.63,11.64,5.3,14.38,11.36c1.36,3,2.25,6.33,2.98,9.54
			c0.58,2.56,1,5.4,0.26,7.93c-0.77,2.61-3.07,3.62-5.76,3.91c-4.11,0.45-8.26,0.66-12.38,0.99c-9.44,0.74-18.88,1.48-28.31,2.22
			c0.8,1.05,1.61,2.11,2.41,3.16c4.72-12.73,7.48-26.12,8.28-39.66c0.19-3.21-4.81-3.2-5,0c-0.77,13.11-3.53,26.02-8.1,38.33
			c-0.54,1.46,0.87,3.29,2.41,3.16c9.11-0.72,18.21-1.43,27.32-2.15c4.52-0.36,9.07-0.58,13.58-1.09c3.79-0.42,7.47-1.72,9.42-5.25
			c3.32-6.01,0.72-14.06-1.35-20.05c-1.29-3.75-3.08-7.29-5.88-10.15c-2.6-2.65-5.81-4.54-9.23-5.9
			c-8.99-3.59-18.89-2.38-28.22-1.14c-1.34,0.18-2.5,1.02-2.5,2.5C244.86,213.85,246.01,215.32,247.36,215.14L247.36,215.14z"/>
	</g>
</g>
<g>
	<path class="st3" d="M284.66,563.07c7.15-73.4,9.04-147.32,5.65-220.99c40.76,7.61,81.29-14.39,122.75-15.05
		c-3.44,19.87-6.88,39.73-10.32,59.6c-23.75-3.21-47.8-4.29-71.75-3.2c1.12,9.83,1.42,19.76,0.87,29.64
		c13.93-3.56,28.92-2.89,42.48,1.91c-0.38,14.63-0.77,29.26-1.15,43.89c-10.73,0.63-21.45,1.26-32.18,1.9
		c-1.01,33.5-6.43,66.87-16.06,98.97c-10.62,0.18-21.24,0.36-31.87,0.54"/>
	<g>
		<path d="M287.16,563.07c2.78-28.64,4.78-57.35,5.96-86.1c1.19-28.75,1.57-57.53,1.15-86.3c-0.24-16.2-0.73-32.4-1.47-48.59
			c-1.05,0.8-2.11,1.61-3.16,2.41c16.08,2.96,32.38,1.53,48.34-1.46c16.06-3.01,31.8-7.47,47.86-10.48
			c8.99-1.68,18.06-2.86,27.22-3.02c-0.8-1.05-1.61-2.11-2.41-3.16c-3.44,19.87-6.88,39.73-10.32,59.6
			c1.03-0.58,2.05-1.16,3.08-1.75c-18.7-2.52-37.54-3.79-56.41-3.7c-5.34,0.03-10.67,0.16-16,0.4c-1.23,0.05-2.66,1.11-2.5,2.5
			c1.11,9.84,1.4,19.75,0.87,29.64c-0.09,1.66,1.67,2.79,3.16,2.41c13.58-3.43,27.94-2.72,41.15,1.91c-0.61-0.8-1.22-1.61-1.84-2.41
			c-0.38,14.63-0.77,29.26-1.15,43.89c0.83-0.83,1.67-1.67,2.5-2.5c-10.73,0.63-21.45,1.26-32.18,1.9c-1.38,0.08-2.46,1.08-2.5,2.5
			c-0.8,25.95-4.22,51.78-10.25,77.04c-1.7,7.14-3.62,14.23-5.72,21.27c0.8-0.61,1.61-1.22,2.41-1.84
			c-10.62,0.18-21.24,0.36-31.87,0.54c-3.21,0.05-3.22,5.05,0,5c10.62-0.18,21.24-0.36,31.87-0.54c1.12-0.02,2.09-0.77,2.41-1.84
			c7.55-25.22,12.51-51.19,14.83-77.41c0.65-7.39,1.09-14.8,1.32-22.22c-0.83,0.83-1.67,1.67-2.5,2.5
			c10.73-0.63,21.45-1.26,32.18-1.9c1.38-0.08,2.46-1.08,2.5-2.5c0.38-14.63,0.77-29.26,1.15-43.89c0.03-1.16-0.81-2.05-1.84-2.41
			c-14.03-4.91-29.41-5.54-43.81-1.91c1.05,0.8,2.11,1.61,3.16,2.41c0.53-9.89,0.24-19.8-0.87-29.64c-0.83,0.83-1.67,1.67-2.5,2.5
			c18.54-0.83,37.12-0.38,55.6,1.35c5.17,0.49,10.34,1.07,15.48,1.76c1.23,0.17,2.82-0.28,3.08-1.75
			c3.44-19.87,6.88-39.73,10.32-59.6c0.27-1.55-0.66-3.2-2.41-3.16c-16.31,0.29-32.35,3.74-48.17,7.43
			c-15.6,3.64-31.25,7.65-47.28,8.86c-8.88,0.67-17.86,0.47-26.63-1.15c-1.51-0.28-3.24,0.67-3.16,2.41
			c1.32,28.74,1.84,57.52,1.56,86.29c-0.28,28.77-1.37,57.53-3.26,86.25c-1.06,16.17-2.38,32.32-3.95,48.45
			c-0.13,1.35,1.24,2.5,2.5,2.5C286.12,565.57,287.02,564.42,287.16,563.07L287.16,563.07z"/>
	</g>
</g>
<path class="st4" d="M-158.53,604.06"/>
</svg>
